<?xml version="1.0" encoding="iso-8859-1"?>
<svg version="1.1" id="Capa_1" xmlns="http://www.w3.org/2000/svg" xmlns:xlink="http://www.w3.org/1999/xlink" x="0px" y="0px"
	 viewBox="0 0 58.201 58.201" style="enable-background:new 0 0 58.201 58.201;" xml:space="preserve">
<g>
	<path d="M55.6,56.201h-1v-2.36c0-3.535-1.845-6.748-4.827-8.64c2.981-1.892,4.827-5.105,4.827-8.64v-2.36h1c0.553,0,1-0.447,1-1
		s-0.447-1-1-1h-1h-1h-14h-1h-1c-0.553,0-1,0.447-1,1s0.447,1,1,1h1v2.36c0,3.535,1.845,6.748,4.827,8.64
		c-2.981,1.892-4.827,5.105-4.827,8.64v2.36h-1c-0.553,0-1,0.447-1,1s0.447,1,1,1h1h1h14h1h1c0.553,0,1-0.447,1-1
		S56.153,56.201,55.6,56.201z M40.6,36.561v-2.36h12v2.36c0,3.319-2.033,6.298-5.197,7.64h-1.605
		C42.634,42.859,40.6,39.88,40.6,36.561z M40.6,53.84c0-3.319,2.033-6.298,5.197-7.64h1.605c3.164,1.342,5.197,4.32,5.197,7.64v2.36
		h-12V53.84z" fill="white"/>
	<path d="M36.997,42.438c-0.9-1.79-1.397-3.789-1.397-5.876v-3.917c-1.99,0.212-4.111,0.363-6.394,0.426
		c-0.87,0.027-1.74,0.041-2.606,0.041c-0.869,0-1.742-0.014-2.614-0.042c-7.341-0.201-13.191-1.238-17.403-2.717
		C4.604,29.685,2.909,28.899,1.6,28v7.111v0.5v0.5V37.4c2.846,2.971,12.394,5.711,25,5.711
		C30.375,43.111,33.868,42.861,36.997,42.438z" fill="white" />
	<path d="M24.236,29.965c0.326,0.009,0.651,0.018,0.982,0.023C25.674,29.996,26.135,30,26.6,30s0.926-0.004,1.383-0.011
		c0.33-0.005,0.656-0.015,0.982-0.023c0.116-0.003,0.234-0.005,0.349-0.008c11.253-0.359,19.648-2.915,22.286-5.668V23v-0.5V22
		v-7.111C46.733,18.232,36.444,20,26.6,20s-20.133-1.768-25-5.111V22v0.5V23v1.289c2.638,2.754,11.033,5.31,22.286,5.668
		C24.002,29.96,24.12,29.962,24.236,29.965z" fill="white" />
	<path d="M51.6,11.306V9.5V9c0-0.168-0.056-0.319-0.135-0.458C50.343,4.241,41.715,0,26.6,0C11.523,0,2.904,4.22,1.747,8.51
		C1.662,8.657,1.6,8.818,1.6,9v0.5v1.806C4.437,14.267,13.917,17,26.6,17S48.764,14.267,51.6,11.306z" fill="white" />
	<path d="M26.6,46.201c-12.346,0-20.866-2.29-25-5.201v8.201c0,0.162,0.043,0.315,0.117,0.451
		c1.181,4.895,11.747,8.549,24.883,8.549c3.185,0,6.214-0.219,9-0.614V53.84c0-3.185,1.153-6.162,3.143-8.503
		C35.242,45.884,31.186,46.201,26.6,46.201z" fill="white" />
</g>
</svg>
