<?xml version="1.0" standalone="no"?>
<svg version="1.0" xmlns="http://www.w3.org/2000/svg" viewBox="0 0 512.000000 512.000000" preserveAspectRatio="xMidYMid meet">
<g transform="translate(0.000000,512.000000) scale(0.100000,-0.100000)"
fill="#000000" stroke="none">
<path d="M2305 4514 c-658 -88 -1220 -492 -1514 -1087 -96 -194 -167 -435
-187 -629 l-7 -68 -298 0 -299 0 0 -170 0 -170 299 0 298 0 7 -67 c20 -195 91
-436 187 -630 195 -394 514 -713 903 -902 980 -478 2151 -77 2635 902 96 194
167 435 187 630 l7 67 298 0 299 0 0 170 0 170 -299 0 -298 0 -7 68 c-36 351
-204 737 -446 1027 -271 323 -654 560 -1055 653 -217 51 -498 65 -710 36z
m406 -325 c440 -44 827 -248 1103 -579 188 -225 323 -518 361 -780 3 -25 8
-57 11 -72 l6 -28 -371 0 -371 0 0 -170 0 -170 371 0 371 0 -6 -27 c-3 -16 -8
-48 -11 -73 -28 -196 -133 -462 -253 -638 -206 -304 -500 -529 -841 -642 -351
-117 -691 -117 -1042 0 -341 113 -635 338 -841 642 -120 176 -225 442 -253
638 -3 25 -8 57 -11 73 l-6 27 403 0 403 0 161 158 c88 87 325 320 527 518
l367 361 -119 118 -118 118 -474 -466 -473 -467 -338 0 -339 0 6 28 c3 15 8
47 11 72 28 196 133 462 253 638 340 502 926 781 1513 721z"/>
</g>
</svg>
