<svg width="54" height="30" viewBox="0 0 54 30" fill="none" xmlns="http://www.w3.org/2000/svg">
<path d="M19.7794 2.07999L20.1494 1.58998C20.5194 1.08998 21.1094 0.799988 21.7294 0.799988H52.7694C53.5894 0.799988 54.0494 1.72997 53.5594 2.37997L50.8994 5.90997C50.5294 6.39997 49.9394 6.69998 49.3194 6.69998H22.0594C21.1594 6.69998 20.7294 7.79997 21.3894 8.40997L24.9094 11.65L35.3094 21.23C35.7394 21.62 36.4094 21.56 36.7694 21.1L43.6194 12.05C43.8094 11.8 44.0994 11.66 44.4094 11.66H45.5894C45.9994 11.66 46.2294 12.13 45.9794 12.45L37.4494 23.74H37.4694L33.5994 28.86C33.5594 28.92 33.5094 28.98 33.4594 29.03C33.4494 29.03 33.4494 29.03 33.4494 29.04C33.0694 29.43 32.5594 29.64 32.0294 29.64H0.989401C0.179401 29.64 -0.290577 28.71 0.199423 28.06L3.4594 23.74L12.2994 12.05C12.4894 11.8 12.7794 11.66 13.0894 11.66H14.2694C14.6794 11.66 14.9094 12.13 14.6594 12.45L6.72942 22.95C6.47942 23.28 6.71941 23.74 7.11941 23.74H32.2294C33.1294 23.74 33.5594 22.64 32.8994 22.03L21.6494 11.66L17.8494 8.15997L16.9394 7.30998C16.5694 6.96998 16.5194 6.38998 16.8194 5.98997L19.7794 2.07999Z" fill="#0458D7"/>
</svg>
