<svg width="1000" height="121" viewBox="0 0 1000 121" fill="none" xmlns="http://www.w3.org/2000/svg">
<path d="M70.9704 21.8156L72.2979 20.0574C73.6255 18.2634 75.7426 17.2228 77.9672 17.2228H189.342C192.284 17.2228 193.934 20.5597 192.176 22.892L182.632 35.5579C181.304 37.3161 179.187 38.3926 176.963 38.3926H79.1512C75.9219 38.3926 74.3791 42.3394 76.7472 44.5282L89.3773 56.1536L126.693 90.5276C128.236 91.9269 130.64 91.7116 131.932 90.0611L156.51 57.5889C157.192 56.6919 158.233 56.1895 159.345 56.1895H163.579C165.05 56.1895 165.875 57.8759 164.978 59.0241L134.372 99.5336H134.444L120.558 117.905C120.414 118.12 120.235 118.335 120.055 118.515C120.02 118.515 120.02 118.515 120.02 118.551C118.656 119.95 116.826 120.703 114.925 120.703H3.55006C0.643709 120.703 -1.04262 117.366 0.71555 115.034L12.4127 99.5336L44.1315 57.5889C44.8132 56.6919 45.8537 56.1895 46.966 56.1895H51.1999C52.6711 56.1895 53.4964 57.8759 52.5993 59.0241L24.1458 96.6991C23.2488 97.8831 24.1099 99.5336 25.5451 99.5336H115.642C118.871 99.5336 120.414 95.5868 118.046 93.398L77.6801 56.1895L64.0454 43.6312L60.7802 40.5813C59.4526 39.3614 59.2732 37.2802 60.3496 35.845L70.9704 21.8156Z" fill="#0458D7"/>
<path d="M280.729 90.0252C280.729 105.885 268.493 115.752 248.795 115.752C229.742 115.752 216.251 106.602 211.694 90.6711L211.191 88.877L227.123 84.8584L227.625 86.4371C231.069 96.8067 238.066 101.866 249.117 101.866C259.056 101.866 264.762 97.7755 264.762 90.6352C264.762 85.1095 261.245 82.2391 251.342 79.6557L238.533 76.534C226.046 73.52 214.492 68.712 214.492 54.3237C214.492 39.7561 226.8 29.9965 245.135 29.9965C262.752 29.9965 275.454 38.1414 280.047 52.3503L280.621 54.1802L264.474 58.0195L263.936 56.5125C260.958 48.1163 254.535 43.8824 244.848 43.8824C237.887 43.8824 230.459 46.4658 230.459 53.6778C230.459 58.5576 233.725 61.2129 242.049 63.1863L256.688 66.6668C266.986 69.0349 280.729 74.0223 280.729 90.0252Z" fill="white"/>
<path d="M391.749 31.1088L367.888 114.64H352.818L335.093 55.436L317.081 114.64H302.19L278.652 31.1088H295.05L310.909 87.6212L328.24 31.1088H342.951L359.528 87.2265L375.638 31.1088H391.749Z" fill="white"/>
<path d="M412.876 31.1088H395.797V114.64H412.876V31.1088Z" fill="white"/>
<path d="M445.711 45.784V90.3122C445.711 96.3402 448.689 99.6412 454.071 99.6412H464.763V114.64H452.958C437.745 114.64 428.631 105.741 428.631 90.8146V45.784H418.656V31.1087H428.631V15.6799L445.711 8.25256V31.1087H464.763V45.784H445.711Z" fill="white"/>
<path d="M541.223 86.6524L540.684 88.4465C535.589 105.562 521.919 115.752 504.05 115.752C479.83 115.752 462.895 98.1343 462.895 72.8742C462.895 47.614 479.615 29.9965 503.583 29.9965C521.452 29.9965 535.697 40.6172 539.895 57.0507L540.361 58.7729L523.497 63.0069L523.103 61.2487C520.555 50.628 513.271 44.5282 503.081 44.5282C489.949 44.5282 480.763 56.046 480.763 72.5512C480.763 89.7023 490.308 101.22 504.516 101.22C513.917 101.22 521.201 95.0486 524.538 84.2484L525.04 82.6338L541.223 86.6524Z" fill="white"/>
<path d="M615.926 59.7059V114.64H598.882V61.464C598.882 46.8605 592.711 44.8512 586.073 44.8512C574.088 44.8512 566.123 56.4765 563.755 67.3485V114.64H546.496V0H563.755V44.8512C570.967 35.3427 581.049 29.9965 592.101 29.9965C602.973 29.9965 615.926 35.1274 615.926 59.7059Z" fill="white"/>
<path d="M673.151 29.9965C662.028 29.9965 652.843 34.6251 646.707 43.1288V0H629.484V114.64H646.707V102.404C652.95 111.087 662.208 115.752 673.295 115.752C693.747 115.752 708.566 97.7755 708.566 73.0177C708.566 47.291 694.357 29.9965 673.151 29.9965ZM669.169 101.399C656.359 101.399 646.707 88.9847 646.707 72.5512C646.707 55.9743 656.072 44.3488 669.491 44.3488C682.48 44.3488 690.877 55.6154 690.877 73.0177C690.877 90.2405 682.373 101.399 669.169 101.399Z" fill="white"/>
<path d="M752.778 29.9965C728.846 29.9965 712.125 47.614 712.125 72.8742C712.125 98.0267 728.846 115.608 752.778 115.608C776.747 115.608 793.467 98.0267 793.467 72.8742C793.467 47.614 776.747 29.9965 752.778 29.9965ZM752.778 101.22C738.713 101.22 729.994 90.3482 729.994 72.8742C729.994 55.4001 738.713 44.5282 752.778 44.5282C766.951 44.5282 775.742 55.4001 775.742 72.8742C775.742 90.3482 766.951 101.22 752.778 101.22Z" fill="white"/>
<path d="M834.02 29.9964C816.51 29.9964 802.66 39.0384 797.888 53.6061L797.277 55.4001L813.101 59.4546L813.639 57.9476C816.833 49.1568 823.614 44.5281 833.23 44.5281C843.564 44.5281 849.054 49.7668 849.054 59.7058V61.0692C848.085 64.8009 841.591 66.0208 829.283 67.1331C814.536 68.3172 794.945 72.3359 794.945 93.0392C794.945 106.638 805.602 115.752 821.497 115.752C832.297 115.752 842.38 111.123 849.054 103.337V114.64H866.277V59.8493C866.277 40.8683 854.508 29.9964 834.02 29.9964ZM849.054 75.1705V80.8038C847.654 95.5508 836.89 102.189 826.879 102.189C823.614 102.189 812.957 101.399 812.957 91.281C812.957 82.9567 819.201 81.0549 833.23 79.9067C840.048 79.225 845.322 77.6821 849.054 75.1705Z" fill="white"/>
<path d="M923.072 31.7905V47.6857H921.278C904.45 47.6857 895.946 57.5171 895.946 76.8569V114.64H878.688V31.1088H895.946V46.107C901.759 35.6297 910.442 29.9965 920.955 29.9965H922.749L923.072 31.7905Z" fill="white"/>
<path d="M982.776 0V43.5235C976.569 34.8403 967.132 29.9965 956.009 29.9965C935.557 29.9965 920.738 47.9728 920.738 72.7306C920.738 98.4572 934.983 115.752 956.153 115.752C967.348 115.752 976.605 111.051 982.776 102.368V114.64H999.999V0H982.776ZM982.633 73.1971C982.633 89.7741 973.232 101.399 959.813 101.399C946.824 101.399 938.463 90.1329 938.463 72.7306C938.463 55.5078 946.967 44.3488 960.135 44.3488C972.945 44.3488 982.633 56.7636 982.633 73.1971Z" fill="white"/>
<path d="M404.09 22.8203C409.638 22.8203 414.136 18.3223 414.136 12.7737C414.136 7.22504 409.638 2.72699 404.09 2.72699C398.541 2.72699 394.043 7.22504 394.043 12.7737C394.043 18.3223 398.541 22.8203 404.09 22.8203Z" fill="white"/>
</svg>
