<svg width="221" height="33" viewBox="0 0 221 33" fill="none" xmlns="http://www.w3.org/2000/svg">
<path d="M20.2393 25.09C20.2393 29.51 16.8294 32.26 11.3394 32.26C6.02936 32.26 2.26936 29.71 0.999359 25.27L0.859375 24.77L5.29938 23.65L5.43936 24.09C6.39936 26.98 8.34935 28.39 11.4294 28.39C14.1994 28.39 15.7894 27.25 15.7894 25.26C15.7894 23.72 14.8094 22.92 12.0494 22.2L8.47937 21.33C4.99937 20.49 1.77936 19.15 1.77936 15.14C1.77936 11.08 5.20937 8.35999 10.3194 8.35999C15.2294 8.35999 18.7694 10.63 20.0494 14.59L20.2094 15.1L15.7094 16.17L15.5594 15.75C14.7294 13.41 12.9393 12.23 10.2393 12.23C8.29935 12.23 6.22937 12.95 6.22937 14.96C6.22937 16.32 7.13935 17.06 9.45935 17.61L13.5394 18.58C16.4094 19.24 20.2393 20.63 20.2393 25.09Z" fill="black"/>
<path d="M51.1801 8.66998L44.5302 31.95H40.3302L35.3902 15.45L30.3701 31.95H26.2202L19.6602 8.66998H24.2302L28.6501 24.42L33.4802 8.66998H37.5802L42.2002 24.31L46.6902 8.66998H51.1801Z" fill="black"/>
<path d="M57.0686 8.66998H52.3086V31.95H57.0686V8.66998Z" fill="black"/>
<path d="M66.2197 12.76V25.17C66.2197 26.85 67.0497 27.77 68.5497 27.77H71.5297V31.95H68.2397C63.9997 31.95 61.4597 29.47 61.4597 25.31V12.76H58.6797V8.66998H61.4597V4.36998L66.2197 2.29999V8.66998H71.5297V12.76H66.2197Z" fill="black"/>
<path d="M92.8378 24.15L92.6878 24.65C91.2678 29.42 87.4578 32.26 82.4778 32.26C75.7278 32.26 71.0078 27.35 71.0078 20.31C71.0078 13.27 75.6678 8.35999 82.3478 8.35999C87.3278 8.35999 91.2978 11.32 92.4678 15.9L92.5978 16.38L87.8978 17.56L87.7878 17.07C87.0778 14.11 85.0478 12.41 82.2078 12.41C78.5478 12.41 75.9878 15.62 75.9878 20.22C75.9878 25 78.6478 28.21 82.6078 28.21C85.2278 28.21 87.2578 26.49 88.1878 23.48L88.3278 23.03L92.8378 24.15Z" fill="black"/>
<path d="M113.659 16.64V31.95H108.909V17.13C108.909 13.06 107.189 12.5 105.339 12.5C101.999 12.5 99.7786 15.74 99.1186 18.77V31.95H94.3086V0H99.1186V12.5C101.129 9.85 103.939 8.36 107.019 8.36C110.049 8.36 113.659 9.79 113.659 16.64Z" fill="black"/>
<path d="M129.607 8.36C126.507 8.36 123.947 9.64999 122.237 12.02V0H117.438V31.95H122.237V28.54C123.977 30.96 126.557 32.26 129.647 32.26C135.347 32.26 139.477 27.25 139.477 20.35C139.477 13.18 135.517 8.36 129.607 8.36ZM128.497 28.26C124.927 28.26 122.237 24.8 122.237 20.22C122.237 15.6 124.847 12.36 128.587 12.36C132.207 12.36 134.547 15.5 134.547 20.35C134.547 25.15 132.177 28.26 128.497 28.26Z" fill="black"/>
<path d="M151.799 8.35999C145.129 8.35999 140.469 13.27 140.469 20.31C140.469 27.32 145.129 32.22 151.799 32.22C158.479 32.22 163.139 27.32 163.139 20.31C163.139 13.27 158.479 8.35999 151.799 8.35999ZM151.799 28.21C147.879 28.21 145.449 25.18 145.449 20.31C145.449 15.44 147.879 12.41 151.799 12.41C155.749 12.41 158.199 15.44 158.199 20.31C158.199 25.18 155.749 28.21 151.799 28.21Z" fill="black"/>
<path d="M174.441 8.35999C169.561 8.35999 165.701 10.88 164.371 14.94L164.201 15.44L168.611 16.57L168.761 16.15C169.651 13.7 171.541 12.41 174.221 12.41C177.101 12.41 178.631 13.87 178.631 16.64V17.02C178.361 18.06 176.551 18.4 173.121 18.71C169.011 19.04 163.551 20.16 163.551 25.93C163.551 29.72 166.521 32.26 170.951 32.26C173.961 32.26 176.771 30.97 178.631 28.8V31.95H183.431V16.68C183.431 11.39 180.151 8.35999 174.441 8.35999ZM178.631 20.95V22.52C178.241 26.63 175.241 28.48 172.451 28.48C171.541 28.48 168.571 28.26 168.571 25.44C168.571 23.12 170.311 22.59 174.221 22.27C176.121 22.08 177.591 21.65 178.631 20.95Z" fill="black"/>
<path d="M199.261 8.85999V13.29H198.761C194.071 13.29 191.701 16.03 191.701 21.42V31.95H186.891V8.66998H191.701V12.85C193.321 9.92998 195.741 8.35999 198.671 8.35999H199.171L199.261 8.85999Z" fill="black"/>
<path d="M215.899 0V12.13C214.169 9.70999 211.539 8.36 208.439 8.36C202.739 8.36 198.609 13.37 198.609 20.27C198.609 27.44 202.579 32.26 208.479 32.26C211.599 32.26 214.179 30.95 215.899 28.53V31.95H220.699V0H215.899ZM215.859 20.4C215.859 25.02 213.239 28.26 209.499 28.26C205.879 28.26 203.549 25.12 203.549 20.27C203.549 15.47 205.919 12.36 209.589 12.36C213.159 12.36 215.859 15.82 215.859 20.4Z" fill="black"/>
<path d="M54.6203 6.36002C56.1667 6.36002 57.4203 5.10641 57.4203 3.56001C57.4203 2.01362 56.1667 0.76001 54.6203 0.76001C53.0739 0.76001 51.8203 2.01362 51.8203 3.56001C51.8203 5.10641 53.0739 6.36002 54.6203 6.36002Z" fill="black"/>
</svg>
