<?xml version="1.0" standalone="no"?>
<!DOCTYPE svg PUBLIC "-//W3C//DTD SVG 20010904//EN" "http://www.w3.org/TR/2001/REC-SVG-20010904/DTD/svg10.dtd">
<svg version="1.0" xmlns="http://www.w3.org/2000/svg"
    width="1139pt" height="1280pt" viewBox="0 0 1139 1280"
    preserveAspectRatio="xMidYMid meet">
    <metadata> Created by potrace 1.15, written by Peter Selinger 2001-2017 </metadata>
    <g transform="translate(0.000000,1280) scale(0.1,-0.1)"
        fill="#000000" stroke="none">
        <path
            d="M5511 12784 c-278 -47 -528 -190 -792 -453 -180 -180 -300 -338 -466
-609 -64 -106 -244 -459 -296 -579 -21 -51 -31 -63 -49 -63 -36 0 -120 -44
-156 -81 -91 -93 -104 -233 -30 -343 29 -45 30 -47 15 -84 -14 -36 -109 -341
-141 -454 l-16 -57 -48 14 c-92 28 -499 115 -672 144 -395 67 -605 85 -975 86
-532 0 -866 -63 -1197 -225 -147 -72 -233 -134 -349 -249 -174 -175 -262 -337
-316 -583 -24 -113 -24 -393 1 -528 54 -300 183 -634 369 -956 l47 -81 -16
-39 c-24 -57 -22 -161 4 -216 46 -94 142 -158 238 -158 l51 0 74 -97 c147
-195 332 -410 563 -657 l108 -116 -114 -123 c-772 -822 -1205 -1541 -1324
-2197 -25 -135 -25 -415 -1 -528 35 -157 90 -292 174 -420 52 -80 234 -259
321 -317 188 -122 439 -218 707 -270 214 -41 315 -48 666 -50 331 -1 347 -2
381 -22 101 -60 248 -40 329 43 18 19 43 34 55 34 78 0 713 127 876 175 l48
14 16 -57 c234 -828 545 -1501 914 -1982 136 -177 365 -391 536 -502 186 -120
440 -198 649 -198 209 0 463 78 649 198 233 151 476 400 668 685 150 223 334
567 443 827 l48 116 59 17 c142 42 232 204 187 338 -7 19 -25 54 -41 78 l-29
43 50 162 c27 88 56 187 65 218 l16 57 48 -14 c56 -17 317 -76 457 -104 247
-49 453 -81 710 -108 211 -22 734 -25 895 -5 533 66 897 216 1145 473 163 169
250 335 302 571 24 113 24 393 -1 528 -69 381 -236 766 -528 1212 l-90 137 17
52 c59 176 -74 352 -265 351 l-65 0 -42 51 c-65 81 -217 252 -347 390 l-118
127 114 123 c772 822 1205 1542 1324 2197 25 135 25 415 1 528 -35 157 -90
292 -174 420 -52 80 -234 259 -321 317 -191 125 -438 219 -714 271 -316 60
-819 70 -1192 24 -69 -9 -70 -8 -105 22 -54 48 -107 68 -181 68 -102 0 -186
-47 -241 -136 -17 -28 -29 -35 -77 -44 -115 -23 -458 -101 -504 -115 l-48 -14
-16 57 c-234 828 -545 1501 -914 1982 -136 177 -365 391 -536 502 -247 160
-558 228 -833 182z m368 -280 c515 -118 999 -704 1391 -1684 105 -262 278
-795 267 -824 -3 -6 -29 -18 -58 -25 -30 -8 -180 -55 -334 -106 -440 -145
-814 -289 -1260 -488 l-190 -84 -55 25 c-521 236 -1017 428 -1530 591 -140 45
-256 84 -259 86 -6 6 26 118 101 353 l62 194 42 20 c132 62 192 212 140 353
l-18 50 40 90 c369 837 852 1370 1317 1454 33 6 71 13 85 15 42 8 190 -4 259
-20z m-3553 -2489 c273 -26 514 -65 819 -130 181 -39 354 -81 361 -87 2 -3
-14 -81 -35 -174 -113 -486 -207 -1068 -266 -1633 -8 -79 -18 -147 -22 -151
-4 -3 -87 -64 -184 -134 -418 -302 -879 -681 -1217 -999 -62 -59 -117 -107
-122 -107 -23 0 -377 393 -563 625 -162 203 -170 215 -157 249 26 70 -5 187
-67 251 -41 42 -124 85 -165 85 -23 0 -33 12 -76 88 -365 647 -450 1157 -256
1532 124 240 359 410 704 509 177 50 367 80 605 95 110 7 488 -5 641 -19z
m7595 0 c556 -65 927 -264 1093 -585 125 -241 134 -527 29 -885 -154 -528
-565 -1160 -1175 -1807 -71 -76 -134 -138 -138 -138 -5 0 -60 48 -122 107
-338 318 -799 697 -1217 999 -97 70 -180 131 -184 134 -4 4 -14 72 -22 151
-59 565 -153 1147 -266 1633 -21 93 -37 172 -34 174 7 7 220 58 407 97 l170
35 40 -34 c79 -68 192 -85 283 -42 55 25 107 72 130 116 9 17 25 31 42 34 26
5 232 22 368 30 115 7 473 -4 596 -19z m-6004 -331 c425 -129 1019 -350 1406
-524 l48 -21 -208 -106 c-114 -58 -293 -152 -396 -209 l-188 -102 -42 19 c-47
21 -131 25 -189 9 -88 -25 -173 -129 -185 -226 -5 -49 -6 -49 -87 -98 -113
-68 -361 -226 -483 -307 -98 -64 -103 -67 -103 -43 0 51 62 509 101 744 69
422 173 900 195 900 7 0 66 -16 131 -36z m3727 -81 c51 -213 114 -534 155
-783 39 -235 101 -693 101 -744 0 -23 -9 -19 -132 63 -143 94 -442 281 -599
375 l-97 57 -4 47 c-9 90 -69 176 -153 217 -56 28 -175 28 -231 -1 l-42 -20
-98 54 c-55 29 -195 102 -312 162 l-213 109 48 21 c189 85 545 228 803 322
266 97 695 236 731 238 12 0 22 -28 43 -117z m-1711 -729 c421 -210 597 -307
597 -329 1 -32 39 -107 73 -144 67 -70 195 -102 285 -70 37 13 40 11 342 -174
147 -91 652 -419 702 -457 10 -8 36 -426 49 -769 l11 -303 -40 -42 c-55 -57
-74 -100 -80 -177 -4 -57 -1 -75 22 -124 14 -32 42 -73 62 -91 l35 -34 -10
-298 c-13 -338 -40 -754 -49 -762 -38 -29 -540 -357 -650 -425 l-143 -88 -51
24 c-78 36 -175 34 -247 -6 -85 -47 -139 -134 -140 -227 l-1 -46 -77 -45
c-144 -81 -416 -224 -673 -352 l-255 -127 -290 145 c-273 136 -522 268 -697
368 -69 39 -78 47 -79 74 -2 76 -62 168 -137 208 -69 37 -143 45 -215 22 -64
-20 -48 -26 -222 83 -94 59 -565 368 -597 392 -9 7 -36 422 -49 758 l-10 294
40 34 c22 19 52 59 66 89 24 48 27 64 23 127 -5 88 -24 131 -85 191 l-45 44
11 299 c13 343 40 757 50 764 59 44 484 322 641 420 l209 129 38 -15 c50 -21
154 -14 208 14 72 37 144 136 145 199 0 26 21 42 170 123 133 74 811 419 823
420 4 0 112 -52 240 -116z m-2777 -1501 c-12 -206 -26 -539 -26 -635 l0 -97
-53 -53 c-60 -59 -87 -122 -87 -197 1 -81 48 -175 108 -215 l29 -19 7 -221 c3
-122 11 -308 17 -415 5 -106 8 -195 5 -198 -10 -10 -479 353 -726 561 -212
179 -570 503 -570 516 0 11 289 275 480 439 246 211 790 639 814 641 4 0 5
-48 2 -107z m5247 -15 c208 -156 463 -361 647 -519 190 -163 480 -428 480
-439 0 -13 -358 -337 -570 -516 -247 -208 -716 -571 -726 -561 -3 3 0 92 5
198 6 107 14 291 17 411 l7 216 43 30 c63 45 96 108 102 197 6 95 -22 162 -97
226 l-51 44 0 95 c0 95 -14 429 -26 633 -3 59 -3 107 1 107 4 0 80 -55 168
-122z m-6616 -1269 c237 -223 553 -491 863 -733 126 -99 453 -342 518 -386 20
-13 24 -30 37 -160 58 -562 153 -1147 266 -1635 21 -93 39 -171 39 -172 0 -15
-759 -173 -831 -173 -19 0 -34 10 -52 38 -116 165 -372 142 -462 -42 l-26 -54
-130 -7 c-219 -12 -555 12 -760 54 -361 75 -626 214 -781 409 -208 262 -248
596 -121 1027 135 464 479 1026 971 1585 117 133 333 360 342 360 5 0 62 -50
127 -111z m8081 -26 c124 -133 225 -246 324 -363 46 -55 47 -57 46 -126 -1
-147 95 -263 233 -281 41 -6 43 -8 144 -162 419 -638 578 -1189 464 -1601
-100 -361 -420 -603 -938 -711 -349 -72 -873 -72 -1376 2 -273 40 -885 166
-885 182 0 1 18 79 39 172 113 487 207 1068 266 1634 8 79 18 147 22 151 4 3
87 64 184 134 418 302 879 681 1217 999 62 59 117 107 122 107 4 0 66 -62 138
-137z m-6023 -1545 c83 -52 171 -108 197 -124 40 -24 48 -34 48 -59 1 -66 58
-153 131 -200 65 -42 185 -49 249 -15 16 8 48 -6 188 -84 172 -96 564 -301
660 -345 29 -14 49 -28 45 -32 -23 -20 -561 -238 -843 -341 -297 -109 -734
-248 -744 -237 -7 7 -84 349 -121 537 -63 324 -165 1005 -165 1107 0 24 5 22
103 -44 56 -37 170 -111 252 -163z m4030 -15 c-52 -420 -131 -871 -217 -1243
-22 -96 -42 -177 -44 -179 -10 -11 -447 128 -744 237 -282 103 -820 321 -843
341 -4 4 16 18 45 32 90 41 464 236 635 331 l161 89 51 -9 c132 -24 263 52
308 178 17 50 22 54 133 122 155 95 435 275 490 315 41 29 45 30 48 13 2 -10
-8 -112 -23 -227z m-1945 -1100 c223 -99 499 -212 719 -295 215 -81 727 -253
830 -279 29 -7 55 -19 58 -25 4 -12 -35 -156 -93 -334 -32 -100 -36 -107 -68
-118 -47 -17 -114 -84 -138 -139 -27 -61 -27 -155 1 -217 l20 -47 -59 -140
c-376 -879 -849 -1413 -1345 -1520 -126 -27 -299 -14 -440 33 -529 178 -1046
904 -1414 1982 -78 228 -154 484 -148 500 3 6 29 18 58 25 95 24 638 207 834
281 234 88 510 202 760 313 l190 84 55 -24 c30 -14 111 -50 180 -80z" />
        <path
            d="M5535 8134 c-16 -2 -66 -9 -110 -15 -117 -15 -258 -52 -376 -99 -540
-214 -925 -673 -1051 -1253 -19 -88 -22 -133 -23 -332 0 -205 3 -242 23 -339
74 -344 232 -636 475 -877 288 -287 647 -451 1069 -490 210 -20 489 16 693 88
116 41 324 149 420 217 112 81 256 214 333 309 491 601 523 1445 80 2072 -119
168 -316 355 -488 463 -173 108 -416 201 -620 236 -92 16 -364 29 -425 20z" />
    </g>
</svg>