<?xml version="1.0" encoding="iso-8859-1"?>
<!-- Generator: Adobe Illustrator 16.0.0, SVG Export Plug-In . SVG Version: 6.00 Build 0)  -->
<!DOCTYPE svg PUBLIC "-//W3C//DTD SVG 1.1//EN" "http://www.w3.org/Graphics/SVG/1.1/DTD/svg11.dtd">
<svg version="1.1" id="Capa_1" xmlns="http://www.w3.org/2000/svg" xmlns:xlink="http://www.w3.org/1999/xlink" x="0px" y="0px"
	 width="590.58px" height="590.58px" viewBox="0 0 590.58 590.58" style="enable-background:new 0 0 590.58 590.58;"
	 xml:space="preserve">
	<g fill="#FFFFFF" stroke="none">
		<path d="M532.489,250.345c-2.24-11.928-5.334-23.571-9.238-34.762l42.273-24.422l7.947-4.59l-4.587-7.947l-35.766-61.959
			l-4.59-7.956l-7.953,4.593L478.36,137.7c-7.932-9.183-16.459-17.711-25.471-25.469L477.305,70l4.6-7.953l-7.956-4.593
			l-61.959-35.759l-7.95-4.59l-4.59,7.95L375.027,67.36c-11.27-3.938-22.919-7.035-34.795-9.248V9.18V0h-9.181h-71.527h-9.18v9.18
			v48.938c-11.769,2.206-23.394,5.303-34.719,9.25l-24.428-42.314l-4.59-7.95l-7.95,4.59l-61.956,35.766l-7.947,4.587l4.584,7.95
			l24.364,42.247c-9.104,7.855-17.62,16.38-25.435,25.453l-42.271-24.394l-7.947-4.587l-4.59,7.947l-35.766,61.925l-4.59,7.95
			l7.95,4.59l42.341,24.459c-3.935,11.267-7.032,22.904-9.247,34.761H9.18H0v9.18v71.528v9.18h9.18h48.969
			c2.215,11.854,5.309,23.495,9.247,34.756l-42.335,24.422l-7.953,4.59l4.59,7.953l35.765,61.962l4.59,7.949l7.95-4.587
			l42.271-24.395c7.815,9.076,16.331,17.599,25.432,25.453l-24.364,42.247l-4.583,7.949l7.947,4.587l61.958,35.766l7.95,4.59
			l4.59-7.949l24.425-42.305c11.178,3.901,22.806,6.992,34.725,9.234V581.4v9.18h9.18h71.527h9.18v-9.18v-48.945
			c11.946-2.236,23.596-5.333,34.792-9.238l24.426,42.305l4.59,7.95l7.949-4.59l61.959-35.766l7.956-4.59l-4.599-7.953
			l-24.416-42.23c9.024-7.772,17.556-16.311,25.478-25.499l42.21,24.391l7.949,4.593l4.594-7.949l35.765-61.922l4.591-7.95
			l-7.947-4.59l-42.274-24.422c3.905-11.19,6.999-22.831,9.238-34.762H581.4h9.18v-9.181v-71.527v-9.18h-9.18H532.489z
			 M392.387,295.29c0,53.538-43.556,97.094-97.097,97.094c-53.538,0-97.094-43.556-97.094-97.094
			c0-53.538,43.556-97.094,97.094-97.094C348.828,198.196,392.387,241.752,392.387,295.29z"/>
	</g>
</svg>
