<svg viewBox="0 0 320 320" version="1.1"
    xmlns="http://www.w3.org/2000/svg" xmlns:xlink="http://www.w3.org/1999/xlink">
    <title>Artboard</title>
    <defs>
        <path
            d="M248,496 C384.966618,496 496,384.966618 496,248 C496,111.033382 384.966618,0 248,0 C111.033382,0 0,111.033382 0,248 C0,384.966618 111.033382,496 248,496 Z"
            id="path-1"></path>
    </defs>
    <g id="Artboard" stroke="none" stroke-width="1" fill="none" fill-rule="evenodd">
        <g id="logo-Large.894e973b2be95769bcd44164e320154a"
            transform="translate(-87.513640, -81.027280)">
            <g id="Gears">
                <g id="Oval-9" stroke-linecap="square" transform="translate(121.513640, 115.027280)"
                    fill="#000" fill-rule="nonzero" stroke="#000" stroke-width="30.6">
                    <path
                        d="M126.48636,252.97272 C196.342848,252.97272 252.97272,196.342848 252.97272,126.48636 C252.97272,56.6298724 196.342848,0 126.48636,0 C56.6298724,0 0,56.6298724 0,126.48636 C0,196.342848 56.6298724,252.97272 126.48636,252.97272 Z"
                        id="path-1"></path>
                </g>
                <g id="Rectangle-Clipped">
                    <mask id="mask-2" fill="white">
                        <use xlink:href="#path-1"></use>
                    </mask>
                    <g id="path-1"></g>
                    <rect id="Rectangle" fill="#fff" fill-rule="nonzero" mask="url(#mask-2)"
                        x="86.48636" y="45.7648412" width="334" height="362"></rect>
                </g>
            </g>
            <g id="Group" transform="translate(132.000000, 154.000000)" fill="#000"
                fill-rule="nonzero">
                <path
                    d="M23.7633443,63.1274764 C23.7633443,25.7198236 49.5604126,0.720595612 89.3319881,0 L234,0 C225.371131,19.1672489 218.424853,28.8855158 213.161168,29.1548008 L88.0469583,29.1548008 C66.386981,29.2134952 53.3477204,41.8935489 53.3477204,63.1274764 C53.3477204,84.1314118 66.3461916,97.7104805 87.3165217,97.7948911 L142.720671,97.7104801 C150.767587,97.7948908 157.663855,104.776824 157.663855,113.182844 C157.663855,121.588864 151.385173,126.450667 143.489645,126.854594 L88.9267032,126.91808 C50.0543337,126.91808 24.3605542,101.064654 23.7735916,64.4092366 L23.7633443,63.1274764 Z"
                    id="Combined-Shape-Copy-6"></path>
                <path
                    d="M0,112.209396 C0,74.8017433 25.7970682,49.8025154 65.5686437,49.0819199 L210.236656,49.0819199 C201.607786,68.2491686 194.661509,77.9674356 189.397824,78.2367206 L64.2836139,78.2367206 C42.6236366,78.2954152 29.5843759,90.9754688 29.5843759,112.209396 C29.5843759,133.213331 42.5828475,146.7924 63.5531773,146.876811 L118.957327,146.7924 C127.004243,146.876811 133.90051,153.858744 133.90051,162.264764 C133.90051,170.670784 127.621829,175.532587 119.726301,175.936514 L65.1633588,176 C26.2909893,176 0.597209818,150.146574 0.0102472426,113.491157 L0,112.209396 Z"
                    id="Combined-Shape-Copy-5"
                    transform="translate(105.118328, 112.540960) rotate(180.000000) translate(-105.118328, -112.540960) "></path>
            </g>
        </g>
    </g>
</svg>