<svg fill="#FEFEFE" viewBox="0 0 32 32" version="1.1" xmlns="http://www.w3.org/2000/svg">
    <title>anchor</title>
    <path
        d="M28.871 10.856l1.624-0.123-5.517-5.953 1.276 6.273 1.33-0.101c0.704 4.492-0.134 8.8-2.66 12.036l-15.211-15.211c0.76-1.652 0.46-3.672-0.902-5.033-1.747-1.747-4.579-1.747-6.326-0s-1.747 4.579 0 6.326c1.359 1.359 3.374 1.66 5.025 0.905l3.351 3.351c-1.337 1.229-2.746 2.386-4.208 3.489l1.879 1.879c1.169-1.407 2.368-2.774 3.609-4.087l10.581 10.581c-3.235 2.523-7.541 3.36-12.030 2.657l0.101-1.332-6.273-1.276 5.953 5.517 0.123-1.622c5.403 2.307 11.083 2.16 15.060-0.733l3.936 1.33-1.341-3.97c2.783-3.969 2.896-9.57 0.619-14.902zM3.679 7.879c-1.089-1.089-1.089-2.854 0-3.942s2.854-1.089 3.942 0c1.089 1.089 1.089 2.854-0 3.942s-2.854 1.089-3.942 0zM18.435 8.793l-1.879-1.879c-1.062 1.507-2.227 2.91-3.475 4.23l1.25 1.25c1.315-1.269 2.679-2.474 4.105-3.601z"></path>
</svg>