<svg width="320" height="320" viewBox="0 0 320 320" fill="none" xmlns="http://www.w3.org/2000/svg">
<rect width="320" height="320" fill="white"/>
<path d="M123.017 91.6666L124.944 89.1145C126.871 86.5104 129.944 85 133.173 85H294.838C299.109 85 301.505 89.8436 298.952 93.229L285.098 111.614C283.171 114.166 280.099 115.729 276.869 115.729H134.892C130.204 115.729 127.965 121.458 131.402 124.635L149.735 141.51L203.901 191.405C206.141 193.436 209.63 193.124 211.505 190.728L247.182 143.593C248.172 142.291 249.682 141.562 251.297 141.562H257.442C259.578 141.562 260.776 144.01 259.474 145.676L215.047 204.478H215.151L194.995 231.144C194.787 231.457 194.526 231.769 194.266 232.03C194.214 232.03 194.214 232.03 194.214 232.082C192.235 234.113 189.579 235.207 186.818 235.207H25.1531C20.9344 235.207 18.4866 230.363 21.0387 226.978L38.0175 204.478L84.0589 143.593C85.0485 142.291 86.5588 141.562 88.1733 141.562H94.3191C96.4545 141.562 97.6524 144.01 96.3504 145.676L55.0487 200.363C53.7467 202.082 54.9966 204.478 57.0799 204.478H187.86C192.547 204.478 194.787 198.749 191.349 195.572L132.756 141.562L112.965 123.333L108.225 118.906C106.298 117.135 106.038 114.114 107.6 112.031L123.017 91.6666Z" fill="#0458D7"/>
</svg>
