<?xml version="1.0" encoding="utf-8"?><!-- Uploaded to: SVG Repo, www.svgrepo.com, Generator: SVG Repo Mixer Tools -->
<svg version="1.1" id="Uploaded to svgrepo.com" xmlns="http://www.w3.org/2000/svg" xmlns:xlink="http://www.w3.org/1999/xlink" 
	 width="800px" height="800px" viewBox="0 0 32 32" xml:space="preserve">
<style type="text/css">
	.blueprint_een{fill:#111918;}
</style>
<path class="blueprint_een" d="M8,9H4v3h4V9z M7,11H5v-1h2V11z M8,13H4v3h4V13z M7,15H5v-1h2V15z M6,17c-1.657,0-3,1.343-3,3
	s1.343,3,3,3s3-1.343,3-3S7.657,17,6,17z M6,22c-1.103,0-2-0.897-2-2c0-1.103,0.897-2,2-2s2,0.897,2,2C8,21.103,7.103,22,6,22z
	 M21.646,11.646l0.707,0.707l-2,2l-0.707-0.707L21.646,11.646z M31,4h-1.586l-1.707-1.707c-0.391-0.391-1.023-0.391-1.414,0
	L24.586,4H1C0.448,4,0,4.448,0,5v22c0,0.552,0.448,1,1,1h30c0.552,0,1-0.448,1-1V5C32,4.448,31.552,4,31,4z M16,14v4h4l8-8v13H11V9
	h10L16,14z M17,14.707L19.293,17H17V14.707z M20.146,16.439l-2.586-2.586L27,4.414L29.586,7L20.146,16.439z M2,26V6h22l-2,2H10v16
	h19V9l1-1v18H2z"/>
</svg>