<svg version="1.1" viewBox="0.0 0.0 746.1942257217847 443.994750656168" fill="none" stroke="none" stroke-linecap="square" stroke-miterlimit="10" xmlns:xlink="http://www.w3.org/1999/xlink" xmlns="http://www.w3.org/2000/svg"><clipPath id="p.0"><path d="m0 0l746.1942 0l0 443.99475l-746.1942 0l0 -443.99475z" clip-rule="nonzero"/></clipPath><g clip-path="url(#p.0)"><path fill="#000000" fill-opacity="0.0" d="m0 0l746.1942 0l0 443.99475l-746.1942 0z" fill-rule="evenodd"/><path fill="#000000" fill-opacity="0.0" d="m21.68633 211.16933l0 0c-5.1083736 -19.076675 6.214813 -38.683853 25.291044 -43.793884l543.2653 -145.52647c9.160767 -2.4539185 18.920776 -1.1681614 27.132996 3.574421c8.212219 4.7425823 14.2039795 12.553501 16.657104 21.714443l36.99701 138.16135c5.1083984 19.076675 -6.2147827 38.68387 -25.291016 43.793884l-543.2653 145.52647c-19.076233 5.110016 -38.681732 -6.2121887 -43.790108 -25.288849z" fill-rule="evenodd"/><path stroke="#cc0000" stroke-width="8.0" stroke-linejoin="round" stroke-linecap="butt" stroke-dasharray="64.0,24.0" d="m21.68633 211.16933l0 0c-5.1083736 -19.076675 6.214813 -38.683853 25.291044 -43.793884l543.2653 -145.52647c9.160767 -2.4539185 18.920776 -1.1681614 27.132996 3.574421c8.212219 4.7425823 14.2039795 12.553501 16.657104 21.714443l36.99701 138.16135c5.1083984 19.076675 -6.2147827 38.68387 -25.291016 43.793884l-543.2653 145.52647c-19.076233 5.110016 -38.681732 -6.2121887 -43.790108 -25.288849z" fill-rule="evenodd"/><path fill="#cc0000" d="m154.90265 256.57022l10.183975 0.45861816q-0.05659485 8.426636 -4.0599823 13.591522q-3.9923248 5.1457825 -11.719879 7.21579q-9.538696 2.5551453 -17.442596 -2.3155823q-7.888809 -4.8747864 -10.920074 -16.194702q-3.2050552 -11.968918 1.1976776 -20.233337q4.41378 -8.283539 14.480728 -10.980209q8.799149 -2.357071 15.683289 1.3633575q4.099655 2.2016907 7.269577 7.515564l-8.96965 4.8614655q-1.8434906 -3.5016174 -5.1230774 -4.936249q-3.2644958 -1.4386902 -7.1282654 -0.40368652q-5.3277893 1.427185 -7.621628 6.1503143q-2.2978973 4.7080383 -0.0062561035 13.2659q2.4371338 9.101227 6.7318573 12.091797q4.305786 2.9714355 9.543015 1.5685425q3.8637848 -1.0350037 5.9861145 -4.2240295q2.1183014 -3.2041016 1.9151764 -8.795074zm15.44368 -4.379593q-1.2246246 -4.5732574 -0.12362671 -9.462128q1.1160889 -4.892929 4.649338 -8.249588q3.52919 -3.3717651 8.630585 -4.7382965q7.878479 -2.110443 14.274536 1.6598511q6.411148 3.7662506 8.5047455 11.584534q2.1097565 7.878662 -1.5862122 14.433212q-3.699997 6.539459 -11.41246 8.605438q-4.769348 1.2775879 -9.67897 0.27957153q-4.909607 -0.99798584 -8.289047 -4.557251q-3.364334 -3.563324 -4.9688873 -9.555344zm9.551331 -2.0247498q1.3822479 5.1618805 4.5628815 7.253891q3.1957245 2.0879517 6.787842 1.1257324q3.592102 -0.96224976 5.2864685 -4.3601227q1.7094574 -3.4019318 0.30699158 -8.639282q-1.3660889 -5.1015015 -4.5467224 -7.193512q-3.1655426 -2.0960388 -6.7576447 -1.1338196q-3.592102 0.9622345 -5.3166504 4.36821q-1.7094574 3.4019318 -0.3231659 8.578903zm28.270065 -26.191254l8.467102 -2.2681122l1.2690887 4.739273q3.0637054 -6.7410583 9.342346 -8.422943q3.3355255 -0.89349365 6.148361 -0.17497253q2.8279266 0.71447754 5.1412506 3.0711517q1.5504608 -3.3916779 3.8239136 -5.472687q2.288559 -2.0850525 5.292038 -2.8896027q3.8335876 -1.0269165 6.8911285 -0.17984009q3.072647 0.84303284 5.174942 3.4989014q1.5490112 1.9790802 2.8787231 6.944748l5.9453125 22.202133l-9.191559 2.4621887l-5.3148193 -19.847595q-1.3822479 -5.1618805 -2.7372742 -6.416504q-1.7932129 -1.6224976 -4.4495697 -0.91093445q-1.9167938 0.51345825 -3.3070374 2.147583q-1.3902435 1.6341248 -1.5345917 4.1153564q-0.13330078 2.4620972 1.1802521 7.367386l4.466049 16.678009l-9.191559 2.4621887l-5.0965576 -19.032562q-1.3580017 -5.0713196 -2.248108 -6.401947q-0.87905884 -1.349762 -2.1104279 -1.7801819q-1.2203217 -0.44953918 -2.9861755 0.023483276q-2.1130066 0.5660248 -3.5113373 2.1699524q-1.3983307 1.6039429 -1.5599213 3.9603882q-0.14649963 2.3523865 1.1912994 7.3482513l4.5186005 16.874237l-9.191559 2.4621582l-9.2999115 -34.729507zm58.962646 -20.841415l-2.2754517 -8.497482l9.191559 -2.4621735l2.2754517 8.497482l-9.191559 2.4621735zm10.560913 39.4386l-9.299896 -34.729507l9.191559 -2.4621887l9.299896 34.729523l-9.191559 2.4621735zm50.195007 -13.445923l-9.176483 2.45813l-4.744934 -17.719437q-1.5075378 -5.629776 -2.5367126 -7.117264q-1.0332031 -1.5025787 -2.6038513 -2.0523834q-1.5747375 -0.5649109 -3.4311523 -0.067611694q-2.3997803 0.64282227 -3.9498596 2.4653473q-1.5390015 1.8033905 -1.6704102 4.1517487q-0.11630249 2.3443146 1.4437866 8.170288l4.211426 15.727142l-9.191559 2.4621735l-9.299927 -34.729507l8.542572 -2.28833l1.3660889 5.1015167q2.9667053 -7.103302 9.864136 -8.950943q3.0336914 -0.8126373 5.849243 -0.38601685q2.811493 0.4115448 4.551117 1.7734222q1.7546997 1.3578339 2.830719 3.3827515q1.091095 2.0208588 2.1661987 6.03566l5.779602 21.583313zm9.085907 0.024856567l10.844147 -1.5460815q0.745636 1.7575531 1.8823853 2.1971283q1.5606995 0.6333618 4.383087 -0.122680664q3.592102 -0.96221924 5.0971375 -2.5300598q1.0174866 -1.0328064 1.2229614 -2.8025055q0.115448 -1.2602844 -0.7090759 -4.3392944l-1.3580017 -5.071335q-2.612793 6.7335052 -8.891449 8.41539q-7.0030823 1.875946 -12.677582 -2.9449463q-4.4526367 -3.8217926 -6.3158264 -10.77977q-2.340149 -8.738968 0.6229553 -14.466354q2.9741516 -5.746521 9.222626 -7.4203186q6.4295654 -1.7223053 12.140991 2.8137054l-1.3054504 -4.875122l8.58786 -2.3004456l8.346069 31.167496q1.6449585 6.1429443 1.446106 9.447571q-0.1947937 3.3197021 -1.5562439 5.544632q-1.3614502 2.2249146 -4.1625977 4.026703q-2.8011475 1.8017883 -7.4648438 3.0510712q-8.829315 2.3651428 -13.339447 0.3219452q-4.5061035 -2.028122 -5.750946 -6.676834q-0.12124634 -0.4527893 -0.26486206 -1.1098938zm2.7542725 -22.575241q1.479248 5.524124 4.3095093 7.515869q2.8302917 1.991745 5.9696045 1.1508026q3.3657227 -0.9015808 4.9867554 -4.150421q1.6170044 -3.2639313 0.23477173 -8.425812q-1.4429016 -5.3882904 -4.3758545 -7.401062q-2.9219055 -2.0318909 -6.3177795 -1.1222229q-3.305359 0.8854065 -4.761444 4.02536q-1.4561157 3.1399536 -0.045562744 8.407486zm50.42865 -10.839478l9.171417 -3.443512q2.129364 4.5088196 5.323517 6.047226q3.190094 1.5233154 7.6123047 0.3387146q4.6636963 -1.2492828 6.5038147 -3.8612366q1.8552246 -2.6160126 1.1438904 -5.272415q-0.45669556 -1.7055359 -1.7872314 -2.6270142q-1.3154297 -0.9255371 -4.025055 -1.1378937q-1.8631287 -0.1317749 -8.31955 -0.019866943q-8.290161 0.15020752 -12.181244 -1.8161926q-5.4811096 -2.7698212 -7.004822 -8.459976q-0.9821472 -3.6676483 0.23278809 -7.406204q1.230011 -3.7426147 4.6944885 -6.449997q3.4604187 -2.7224731 8.984436 -4.2022095q9.025543 -2.4177094 14.642487 0.31573486q5.63208 2.7294006 7.628723 9.279587l-9.561371 3.0141602q-1.624115 -3.5280304 -4.094116 -4.5971985q-2.4700012 -1.0691681 -6.56015 0.026473999q-4.226013 1.1320343 -6.149933 3.491455q-1.240387 1.5292816 -0.7392273 3.4008484q0.45266724 1.6904297 2.2249146 2.5097656q2.2384949 1.0503082 9.75058 0.83354187q7.5080566 -0.2318573 11.365784 0.6435089q3.857727 0.8753662 6.603058 3.4560242q2.7453308 2.580658 3.9618835 7.1237183q1.1033936 4.120453 -0.22476196 8.342255q-1.3322144 4.206726 -5.044098 7.0774536q-3.7159424 2.8556213 -9.964386 4.529419q-9.085907 2.4338684 -15.084503 -0.4561615q-5.9985657 -2.89003 -9.103638 -10.680008zm44.33194 -14.301758q-1.2246094 -4.573242 -0.12362671 -9.462128q1.1161194 -4.892914 4.649353 -8.249588q3.5291748 -3.3717651 8.630585 -4.7382812q7.878479 -2.110443 14.274536 1.6598511q6.4111633 3.7662354 8.50473 11.584534q2.1097717 7.878662 -1.5861816 14.433212q-3.7000122 6.539459 -11.412476 8.605438q-4.769348 1.2775726 -9.678955 0.2795868q-4.9096375 -0.9980011 -8.2890625 -4.5572815q-3.3643494 -3.563324 -4.9689026 -9.555344zm9.551331 -2.0247345q1.3822632 5.1618805 4.5628967 7.2538757q3.1957397 2.087967 6.787842 1.1257324q3.592102 -0.96221924 5.2864685 -4.3601074q1.7094421 -3.4019318 0.30700684 -8.639282q-1.3660889 -5.1015167 -4.5467224 -7.193512q-3.1655579 -2.096054 -6.75766 -1.1338196q-3.592102 0.9622345 -5.3166504 4.36821q-1.7094727 3.4019165 -0.32318115 8.578903zm31.354858 -8.932953q-1.2246399 -4.573242 -0.12362671 -9.462128q1.1160889 -4.892914 4.6493225 -8.249588q3.5292053 -3.3717651 8.630585 -4.7382812q7.878479 -2.110443 14.274536 1.6598511q6.4111633 3.7662354 8.504761 11.584534q2.1097717 7.878662 -1.5862122 14.433212q-3.7000122 6.5394745 -11.412445 8.605438q-4.769348 1.2775726 -9.678986 0.2795868q-4.909607 -0.9980011 -8.289032 -4.5572815q-3.3643494 -3.563324 -4.9689026 -9.555344zm9.551331 -2.0247345q1.3822632 5.1618805 4.5628967 7.2538757q3.1957092 2.087967 6.7878113 1.1257324q3.592102 -0.96221924 5.2864685 -4.3601074q1.7094727 -3.4019318 0.30700684 -8.639282q-1.3660889 -5.1015167 -4.5467224 -7.193512q-3.1655273 -2.096054 -6.7576294 -1.1338196q-3.592102 0.9622345 -5.316681 4.36821q-1.7094421 3.4019165 -0.32315063 8.578903zm69.8385 -0.1056366l-9.176453 2.45813l-4.744934 -17.719452q-1.5075073 -5.629776 -2.5366821 -7.1172485q-1.0332031 -1.5025787 -2.6038818 -2.0523987q-1.574707 -0.56489563 -3.4311523 -0.067611694q-2.3997803 0.6428375 -3.949829 2.4653625q-1.5390015 1.8033905 -1.6704102 4.1517334q-0.11633301 2.3443146 1.4437256 8.170303l4.211487 15.727127l-9.191589 2.4621887l-9.299927 -34.729507l8.542603 -2.28833l1.3660889 5.1015015q2.9666748 -7.1032867 9.864136 -8.950943q3.0336914 -0.8126373 5.849243 -0.3860016q2.8114624 0.41152954 4.5510864 1.7734222q1.7546997 1.3578339 2.8306885 3.3827515q1.0911255 2.0208588 2.1661987 6.03566l5.779602 21.583313zm9.613831 -15.823349l-8.899841 -23.691483l-3.0110474 -11.244453l9.931091 -2.660286l3.0110474 11.244453l4.1607056 24.96099l-5.1919556 1.3907776zm1.3179321 12.895035l-2.4614258 -9.191788l9.176514 -2.45813l2.4613647 9.191772l-9.176453 2.4581451z" fill-rule="nonzero"/></g></svg>