<svg viewBox="-5 0 36 36" fill="none" xmlns="http://www.w3.org/2000/svg">
<path fill-rule="evenodd" clip-rule="evenodd" d="M1.65674 29.0793C3.86573 32.9058 7.82242 35.1899 12.2404 35.1899C16.6584 35.1899 20.6143 32.9058 22.8241 29.0793C25.0331 25.2535 25.0331 20.6853 22.8241 16.8588L13.5155 0.736179C12.9488 -0.245394 11.532 -0.245392 10.9653 0.736181L1.65674 16.8588C-0.552248 20.6845 -0.552248 25.2528 1.65674 29.0793ZM9.61818 8.40641L11.6028 4.96881C11.8862 4.47801 12.5946 4.47801 12.878 4.96881L20.5131 18.1935C21.9159 20.6231 22.1792 23.435 21.303 26.0081C21.2118 25.5883 21.0843 25.1588 20.9124 24.7249C19.8578 22.0634 17.4731 20.0096 13.8234 18.6201C11.3141 17.6683 9.71242 16.2684 9.06158 14.4591C8.22329 12.1271 9.09887 9.58411 9.61818 8.40641ZM6.23397 14.2681L3.96766 18.1935C2.2408 21.1845 2.2408 24.755 3.96766 27.746C5.69453 30.737 8.78667 32.5219 12.2404 32.5219C14.5343 32.5219 16.6693 31.7338 18.3504 30.3281C18.5697 29.7761 19.2486 27.7556 18.4098 25.6731C17.6351 23.7501 15.7707 22.215 12.8681 21.1093C9.58703 19.8647 7.4554 17.9217 6.53364 15.3359C6.40668 14.9799 6.30804 14.6231 6.23397 14.2681Z" fill="#1D2947"/>
</svg>
