<?xml version="1.0" encoding="UTF-8"?>
<svg version="1.1" viewBox="-20 -60 440 440" xml:space="preserve" xmlns="http://www.w3.org/2000/svg">
<style type="text/css">
	.st0{fill:url(#c);}
	.st1{fill:url(#b);}
	.st2{fill:url(#a);}
</style>
<linearGradient id="c" x1="360.88" x2="141.21" y1="351.46" y2="-69.294" gradientTransform="matrix(1 0 0 -1 0 314)" gradientUnits="userSpaceOnUse">
	<stop stop-color="#0e5f6f" offset="0"/>
	<stop stop-color="#0e5f6f" offset="1"/>
</linearGradient>
<path class="st0" d="m64.6 237.9c2.4-2.4 5.7-3.8 9.2-3.8h317.4c5.8 0 8.7 7 4.6 11.1l-62.7 62.7c-2.4 2.4-5.7 3.8-9.2 3.8h-317.4c-5.8 0-8.7-7-4.6-11.1l62.7-62.7z"/>
<linearGradient id="b" x1="264.83" x2="45.163" y1="401.6" y2="-19.148" gradientTransform="matrix(1 0 0 -1 0 314)" gradientUnits="userSpaceOnUse">
	<stop stop-color="#0e5f6f" offset="0"/>
	<stop stop-color="#0e5f6f" offset="1"/>
</linearGradient>
<path class="st1" d="M64.6,3.8C67.1,1.4,70.4,0,73.8,0h317.4c5.8,0,8.7,7,4.6,11.1l-62.7,62.7c-2.4,2.4-5.7,3.8-9.2,3.8H6.5  c-5.8,0-8.7-7-4.6-11.1L64.6,3.8z"/>
<linearGradient id="a" x1="312.55" x2="92.882" y1="376.69" y2="-44.061" gradientTransform="matrix(1 0 0 -1 0 314)" gradientUnits="userSpaceOnUse">
	<stop stop-color="#0e5f6f" offset="0"/>
	<stop stop-color="#0e5f6f" offset="1"/>
</linearGradient>
<path class="st2" d="m333.1 120.1c-2.4-2.4-5.7-3.8-9.2-3.8h-317.4c-5.8 0-8.7 7-4.6 11.1l62.7 62.7c2.4 2.4 5.7 3.8 9.2 3.8h317.4c5.8 0 8.7-7 4.6-11.1l-62.7-62.7z"/>
</svg>
