<?xml version="1.0" encoding="UTF-8"?>
<svg fill="none" stroke-linecap="square" stroke-miterlimit="10" version="1.1" viewBox="0 0 377.41 348.78" xmlns="http://www.w3.org/2000/svg">
<clipPath id="a">
<path d="m0 0h377.41v348.78h-377.41v-348.78z"/>
</clipPath>
<g clip-path="url(#a)">
<path d="m0 0h377.41v348.78h-377.41z" fill="#000" fill-opacity="0" fill-rule="evenodd"/>
<path d="m20.706 174.39 76.803-153.61h182.39l76.803 153.61-76.803 153.61h-182.39z" fill="#000" fill-opacity="0" fill-rule="evenodd"/>
<path d="m20.706 174.39 76.803-153.61h182.39l76.803 153.61-76.803 153.61h-182.39z" fill-rule="evenodd" stroke="#0e5f6f" stroke-linecap="butt" stroke-linejoin="round" stroke-width="12"/>
<path d="m44.234 174.39 66-132h156.94l66 132-66 132h-156.94z" fill="#000" fill-opacity="0" fill-rule="evenodd"/>
<path d="m44.234 174.39 66-132h156.94l66 132-66 132h-156.94z" fill-rule="evenodd" stroke="#0e5f6f" stroke-linecap="butt" stroke-linejoin="round" stroke-width="12"/>
<path d="m100.56 80.689h176.28v187.4h-176.28z" fill="#000" fill-opacity="0" fill-rule="evenodd"/>
<path d="m213.15 188.32 20.172 6.4062q-4.6406 16.875-15.437 25.078-10.781 8.1875-27.375 8.1875-20.531 0-33.75-14.031t-13.219-38.359q0-25.734 13.281-39.969 13.297-14.25 34.953-14.25 18.906 0 30.719 11.188 7.0312 6.6094 10.547 18.984l-20.594 4.9219q-1.8281-8.0156-7.6406-12.656-5.7969-4.6406-14.094-4.6406-11.453 0-18.594 8.2344-7.1406 8.2188-7.1406 26.641 0 19.547 7.0312 27.844t18.281 8.2969q8.2969 0 14.266-5.2656 5.9844-5.2812 8.5938-16.609z" fill="#0e5f6f"/>
</g>
</svg>
