<?xml version="1.0" encoding="UTF-8"?>
<svg viewBox="0 0 92 92" xmlns="http://www.w3.org/2000/svg">
<path d="m92 45.999c0 25.405-20.594 45.999-45.999 45.999-25.405 0-46-20.594-46-45.999s20.596-45.999 46-45.999c25.405 0 45.999 20.594 45.999 45.999" fill="none" />
<path d="m67.406 33.699-1.1697-3.6137c-0.2377-0.735-0.8178-1.3069-1.5555-1.5324l-3.6314-1.1168c-0.5027-0.1535-0.5068-0.8626-0.0082-1.0243l3.6151-1.1697c0.7336-0.2378 1.3056-0.8179 1.5325-1.5556l1.1153-3.6314c0.1536-0.5013 0.8627-0.5067 1.0244-0.0068l1.1697 3.6138c0.2377 0.7336 0.8178 1.3055 1.5555 1.5324l3.6314 1.1154c0.5027 0.1549 0.5081 0.8627 0.0082 1.0243l-3.6151 1.1697c-0.7336 0.2378-1.3056 0.8193-1.5325 1.5569l-1.1153 3.6301c-0.1535 0.5027-0.8627 0.5081-1.0244 0.0081" clip-rule="evenodd" fill="#FAFAFA" fill-rule="evenodd"/>
<path d="m4.1824 45.27c1.0936-2.1424 3.2564-3.7564 5.5035-4.7767 2.2701-1.0094 4.7658-1.6289 7.2166-1.8299 4.9478-0.447 9.768 0.3804 14.159 1.8109 2.262 0.6738 4.2862 1.6099 6.377 2.5554 1.0162 0.4891 1.9713 1.0434 2.9549 1.5787l2.7171 1.5745c2.9833 1.8286 5.8757 3.448 8.5928 4.706 2.7239 1.2472 5.1856 2.0908 7.506 2.5215 2.3204 0.4361 4.6788 0.4307 7.5793-0.235 2.8774-0.6508 6.1148-2.0541 9.499-3.8542 3.4045-1.8015 6.896-4.0105 10.879-6.1692-0.3995 4.5117-1.6765 8.7423-3.6708 12.827-2.0433 4.0363-4.8854 7.9733-9.029 11.162-4.0647 3.2143-9.647 5.4545-15.33 5.7915-5.6856 0.3844-11.094-0.8682-15.695-2.7525-4.6191-1.9114-8.6105-4.4234-12.148-7.1962-0.9768-0.7662-1.5012-1.201-2.2226-1.8109l-2.0147-1.7648c-1.3572-1.0624-2.6723-2.3326-4.0159-3.3855-2.6804-2.2402-5.3323-4.4846-8.2396-6.43-1.4659-0.989-2.9779-1.9061-4.6924-2.7185-0.85182-0.3926-1.7566-0.758-2.728-1.0461-0.99446-0.3246-2.0052-0.5176-3.198-0.5583" clip-rule="evenodd" fill="#F6643C" fill-rule="evenodd"/>
<path d="m4.1824 45.27c0.55837-4.6422 2.7225-8.9963 6.1909-12.702 3.4507-3.6707 8.8414-6.5006 14.823-6.8756 2.9522-0.197 5.9491 0.1318 8.7043 0.8953 2.7429 0.7608 5.3132 1.8694 7.6296 3.1749 1.1575 0.6562 2.2402 1.3735 3.3189 2.0976l2.8747 2.1764 4.4873 3.5404c2.9127 2.3191 5.6923 4.4642 8.2613 6.2358 2.5935 1.7742 4.8025 3.0703 6.9123 3.8297 2.0908 0.8287 4.7318 1.0407 8.2233 0.163 1.7335-0.3994 3.5418-1.1289 5.4709-1.9196 1.9183-0.8097 3.9099-1.7756 6.0877-2.7334-0.2622 2.334-0.7364 4.6585-1.6371 6.8308-0.8654 2.2022-2.0052 4.3569-3.5988 6.3661-0.8151 0.9782-1.6887 1.9618-2.7076 2.8693-1.0189 0.8858-2.1479 1.7267-3.395 2.4644-2.4875 1.4414-5.4383 2.4943-8.4651 2.8693-3.0269 0.3804-6.0659 0.1902-8.8333-0.3967-2.7823-0.5706-5.3174-1.4904-7.6446-2.5527-4.638-2.1574-8.5181-4.8691-11.948-7.7397-1.7226-1.4333-3.338-2.9304-4.8677-4.4506l-1.8068-1.8137c-0.5448-0.5257-1.095-1.0542-1.6398-1.5378-2.1954-1.9414-4.2333-3.4249-6.4776-4.3501-2.228-0.9687-5.0796-1.3667-8.5779-0.7119-3.4846 0.648-7.3076 2.1547-11.385 4.2713" clip-rule="evenodd" fill="#FAFAFA" fill-rule="evenodd"/>
<path d="m22.57 69.209c0 1.3735-1.114 2.4875-2.4875 2.4875s-2.4862-1.114-2.4862-2.4875 1.1127-2.4875 2.4862-2.4875 2.4875 1.114 2.4875 2.4875" clip-rule="evenodd" fill="#FAFAFA" fill-rule="evenodd"/>
<path d="m22.57 69.209c0 1.3735-1.114 2.4875-2.4875 2.4875s-2.4862-1.114-2.4862-2.4875 1.1127-2.4875 2.4862-2.4875 2.4875 1.114 2.4875 2.4875" clip-rule="evenodd" fill="#FAFAFA" fill-rule="evenodd"/>
</svg>
